# Made in Blockbench 4.12.4
mtllib comet.mtl

o cube
v 0.5 1 11.5
v 0.5 1 -0.5
v 0.5 0 11.5
v 0.5 0 -0.5
v -0.5 1 -0.5
v -0.5 1 11.5
v -0.5 0 -0.5
v -0.5 0 11.5
vt 0 0.9375
vt 0 0
vt 0.25 0
vt 0.25 0.9375
vt 0.5 0.9375
vt 0.25 0.9375
vt 0.25 1
vt 0.5 1
vt 0.75 0
vt 0.75 0.9375
vt 0.5 0.9375
vt 0.5 0
vt 0.75 0
vt 1 0
vt 1 0.9375
vt 0.75 0.9375
vt 0.5 0.9375
vt 0.25 0.9375
vt 0.25 0
vt 0.5 0
vn 1 0 0
vn 0 0 1
vn -1 0 0
vn 0 1 0
vn 0 -1 0
usemtl m_12731cd9-b2d0-206f-4389-28ea98bd0071
f 3/4/1 4/3/1 2/2/1 1/1/1
f 8/8/2 3/7/2 1/6/2 6/5/2
f 7/12/3 8/11/3 6/10/3 5/9/3
f 6/16/4 1/15/4 2/14/4 5/13/4
f 7/20/5 4/19/5 3/18/5 8/17/5