# Made in Blockbench 4.12.6
mtllib jupiter.mtl

o unknown
v 0.75 0.5 0
v 0.71329275 0.5 -0.23176275
v 1.42658475 0.5 -0.4635255
v 1.5 0.5 0
v 0.60676275 0.5 -0.44083875
v 1.2135255 0.5 -0.8816775
v 0.44083875 0.5 -0.60676275
v 0.8816775 0.5 -1.2135255
v 0.23176275 0.5 -0.71329275
v 0.4635255 0.5 -1.42658475
v 0 0.5 -0.75
v 0 0.5 -1.5
v -0.23176275 0.5 -0.71329275
v -0.4635255 0.5 -1.42658475
v -0.44083875 0.5 -0.60676275
v -0.8816775 0.5 -1.2135255
v -0.60676275 0.5 -0.44083875
v -1.2135255 0.5 -0.8816775
v -0.71329275 0.5 -0.23176275
v -1.42658475 0.5 -0.4635255
v -0.75 0.5 0
v -1.5 0.5 0
v -0.71329275 0.5 0.23176275
v -1.42658475 0.5 0.4635255
v -0.60676275 0.5 0.44083875
v -1.2135255 0.5 0.8816775
v -0.44083875 0.5 0.60676275
v -0.8816775 0.5 1.2135255
v -0.23176275 0.5 0.71329275
v -0.4635255 0.5 1.42658475
v 0 0.5 0.75
v 0 0.5 1.5
v 0.23176275 0.5 0.71329275
v 0.4635255 0.5 1.42658475
v 0.44083875 0.5 0.60676275
v 0.8816775 0.5 1.2135255
v 0.60676275 0.5 0.44083875
v 1.2135255 0.5 0.8816775
v 0.71329275 0.5 0.23176275
v 1.42658475 0.5 0.4635255
vt 0 1
vt 0 0.95
vt 1 0.95
vt 1 1
vt 0 0.95
vt 0 0.9
vt 1 0.9
vt 1 0.95
vt 0 0.9
vt 0 0.85
vt 1 0.85
vt 1 0.9
vt 0 0.85
vt 0 0.8
vt 1 0.8
vt 1 0.85
vt 0 0.8
vt 0 0.75
vt 1 0.75
vt 1 0.8
vt 0 0.75
vt 0 0.7
vt 1 0.7
vt 1 0.75
vt 0 0.7
vt 0 0.65
vt 1 0.65
vt 1 0.7
vt 0 0.65
vt 0 0.6
vt 1 0.6
vt 1 0.65
vt 0 0.6
vt 0 0.55
vt 1 0.55
vt 1 0.6
vt 0 0.55
vt 0 0.5
vt 1 0.5
vt 1 0.55
vt 0 0.5
vt 0 0.44999999999999996
vt 1 0.44999999999999996
vt 1 0.5
vt 0 0.44999999999999996
vt 0 0.4
vt 1 0.4
vt 1 0.44999999999999996
vt 0 0.4
vt 0 0.35
vt 1 0.35
vt 1 0.4
vt 0 0.35
vt 0 0.30000000000000004
vt 1 0.30000000000000004
vt 1 0.35
vt 0 0.30000000000000004
vt 0 0.25
vt 1 0.25
vt 1 0.30000000000000004
vt 0 0.25
vt 0 0.19999999999999996
vt 1 0.19999999999999996
vt 1 0.25
vt 0 0.19999999999999996
vt 0 0.15000000000000002
vt 1 0.15000000000000002
vt 1 0.19999999999999996
vt 0 0.15000000000000002
vt 0 0.09999999999999998
vt 1 0.09999999999999998
vt 1 0.15000000000000002
vt 0 0.09999999999999998
vt 0 0.050000000000000044
vt 1 0.050000000000000044
vt 1 0.09999999999999998
vt 0 0.050000000000000044
vt 0 1
vt 1 1
vt 1 0.050000000000000044
vn 0 -1 0
vn 0 -1 0
vn 0 -1 0
vn 0 -1 0
vn 0 -1 0
vn 0 -1 0
vn 0 -1 0
vn 0 -1 0
vn 0 -1 0
vn 0 -1 0
vn 0 -1 0
vn 0 -1 0
vn 0 -1 0
vn 0 -1 0
vn 0 -1 0
vn 0 -1 0
vn 0 -1 0
vn 0 -1 0
vn 0 -1 0
vn 0 -1 0
usemtl m_fce76d1f-7758-e336-c3ed-34f9a2e036ea
f 1/1/1 2/2/1 3/3/1 4/4/1
f 2/5/2 5/6/2 6/7/2 3/8/2
f 5/9/3 7/10/3 8/11/3 6/12/3
f 7/13/4 9/14/4 10/15/4 8/16/4
f 9/17/5 11/18/5 12/19/5 10/20/5
f 11/21/6 13/22/6 14/23/6 12/24/6
f 13/25/7 15/26/7 16/27/7 14/28/7
f 15/29/8 17/30/8 18/31/8 16/32/8
f 17/33/9 19/34/9 20/35/9 18/36/9
f 19/37/10 21/38/10 22/39/10 20/40/10
f 21/41/11 23/42/11 24/43/11 22/44/11
f 23/45/12 25/46/12 26/47/12 24/48/12
f 25/49/13 27/50/13 28/51/13 26/52/13
f 27/53/14 29/54/14 30/55/14 28/56/14
f 29/57/15 31/58/15 32/59/15 30/60/15
f 31/61/16 33/62/16 34/63/16 32/64/16
f 33/65/17 35/66/17 36/67/17 34/68/17
f 35/69/18 37/70/18 38/71/18 36/72/18
f 37/73/19 39/74/19 40/75/19 38/76/19
f 39/77/20 1/78/20 4/79/20 40/80/20